#!OML:ASF X:\für Bonn\!DataBase\2005_08_10_Bjorn_Final\c3d\bjorn.ASF
:FULLY-SPECIFIED
:DEGREES
539
root -0.40368 1.59074 10.5477 -2437.04 -3.59738 194.076
lowerback 7.02164 -1.50122 -5.60472
upperback 4.17475 -2.54934 -3.46736
thorax 0.465936 -1.43641 -0.275838
lowerneck -19.4429 -5.11868 -0.214673
upperneck 13.8105 -7.98271 4.67857
head 7.64906 -3.49398 0.589159
rclavicle 0 -8.15017e-015
rhumerus -431.514 50.6799 255.486
rradius 112.269
rwrist -20.6492
rhand -12.5493 10.2092
rfingers 7.12502
rthumb 13.5276 -19.3314
lclavicle 0 -8.15017e-015
lhumerus -71.7824 -64.9735 111.961
lradius 111.703
lwrist 34.6129
lhand -2.88602 -13.3258
lfingers 7.12502
lthumb 22.8233 735.344
rfemur -211.796 -144.888 163.09
rtibia 106.579
rfoot 44.0662 14.4236
rtoes 10.7296
lfemur 178.035 191.942 158.258
ltibia 17.1514
lfoot 20.4021 -3.14821
ltoes -12.4149
540
root -0.404161 1.59112 10.5443 -2437.01 -3.51064 194.046
lowerback 6.95898 -1.50822 -5.50494
upperback 4.18076 -2.54599 -3.45389
thorax 0.502611 -1.43336 -0.319811
lowerneck -19.3751 -5.09392 -0.199838
upperneck 13.7309 -7.95327 4.70492
head 7.6112 -3.48003 0.601786
rclavicle 5.08889e-014 2.98177e-016
rhumerus -431.838 50.7859 254.914
rradius 112.241
rwrist -21.0591
rhand -12.3918 10.269
rfingers 7.12502
rthumb 13.6794 -19.2614
lclavicle 5.08889e-014 2.98177e-016
lhumerus -72.7318 -65.1214 112.996
lradius 111.703
lwrist 35.2491
lhand -2.88665 -13.248
lfingers 7.12502
lthumb 22.8227 735.422
rfemur -211.888 -144.951 163.272
rtibia 106.61
rfoot 44.0445 14.3942
rtoes 10.7726
lfemur 178.398 191.567 158.309
ltibia 16.5132
lfoot 20.3686 -3.89399
ltoes -12.2708
541
root -0.404592 1.59159 10.5406 -2436.98 -3.43196 194.025
lowerback 6.89861 -1.51466 -5.40756
upperback 4.1995 -2.54272 -3.44844
thorax 0.550979 -1.43118 -0.371008
lowerneck -19.3563 -5.07095 -0.207142
upperneck 13.6837 -7.92849 4.75871
head 7.59467 -3.46522 0.624565
rclavicle -7.95139e-015 -1.09332e-014
rhumerus -432.108 50.9113 254.38
rradius 112.218
rwrist -21.5186
rhand -12.2631 10.2862
rfingers 7.12502
rthumb 13.8035 -19.2359
lclavicle -7.95139e-015 -1.09332e-014
lhumerus -73.5401 -65.2928 113.894
lradius 111.694
lwrist 35.877
lhand -2.86255 -13.1956
lfingers 7.12502
lthumb 22.8459 735.471
rfemur -211.965 -145.014 163.442
rtibia 106.643
rfoot 43.9936 14.4314
rtoes 10.7058
lfemur 178.756 191.218 158.349
ltibia 15.9375
lfoot 20.3214 -4.56532
ltoes -12.2255
542
root -0.405046 1.59236 10.5386 -2436.95 -3.34311 193.984
lowerback 6.81556 -1.5228 -5.31344
upperback 4.2202 -2.53936 -3.42411
thorax 0.614982 -1.42913 -0.401854
lowerneck -19.3437 -5.03998 -0.212178
upperneck 13.619 -7.88359 4.77855
head 7.57114 -3.44323 0.638675
rclavicle 2.54444e-014 5.66536e-015
rhumerus -432.391 51.0584 253.878
rradius 112.216
rwrist -21.8987
rhand -12.142 10.2782
rfingers 7.12502
rthumb 13.9201 -19.2358
lclavicle 2.54444e-014 5.66536e-015
lhumerus -74.2461 -65.4213 114.711
lradius 111.631
lwrist 36.4047
lhand -2.83284 -13.2271
lfingers 7.12502
lthumb 22.8744 735.436
rfemur -212.076 -145.098 163.65
rtibia 106.675
rfoot 43.9375 14.4574
rtoes 10.6217
lfemur 179.084 190.772 158.408
ltibia 15.412
lfoot 20.2793 -5.34754
ltoes -12.6425
543
root -0.405175 1.59218 10.5363 -2436.93 -3.26928 193.956
lowerback 6.77572 -1.52135 -5.22377
upperback 4.22678 -2.52846 -3.41443
thorax 0.639709 -1.42248 -0.443786
lowerneck -19.2769 -5.0225 -0.218164
upperneck 13.5368 -7.85865 4.81
head 7.53374 -3.43198 0.655593
rclavicle 0 -2.10712e-014
rhumerus -432.651 51.1377 253.374
rradius 112.185
rwrist -22.3072
rhand -12.0055 10.2749
rfingers 7.12502
rthumb 14.0517 -19.2301
lclavicle 0 -2.10712e-014
lhumerus -74.986 -65.5759 115.545
lradius 111.578
lwrist 36.9208
lhand -2.83049 -13.3049
lfingers 7.12502
lthumb 22.8766 735.358
rfemur -212.159 -145.202 163.839
rtibia 106.699
rfoot 43.8961 14.4646
rtoes 10.6429
lfemur 179.423 190.357 158.442
ltibia 14.9372
lfoot 20.2236 -6.04743
ltoes -13.1505
544
root -0.405516 1.59264 10.5338 -2436.9 -3.17859 193.919
lowerback 6.7079 -1.52524 -5.12493
upperback 4.24942 -2.52135 -3.39639
thorax 0.696697 -1.41849 -0.483443
lowerneck -19.2464 -4.99989 -0.211197
upperneck 13.4507 -7.82612 4.8237
head 7.49965 -3.41711 0.664878
rclavicle 4.29375e-014 -5.45664e-014
rhumerus -432.879 51.2587 252.914
rradius 112.174
rwrist -22.6872
rhand -11.8875 10.227
rfingers 7.12502
rthumb 14.1654 -19.2701
lclavicle 4.29375e-014 -5.45664e-014
lhumerus -75.582 -65.7266 116.242
lradius 111.485
lwrist 37.3717
lhand -2.82692 -13.4175
lfingers 7.12502
lthumb 22.8801 735.245
rfemur -212.26 -145.33 164.068
rtibia 106.724
rfoot 43.8398 14.447
rtoes 10.6387
lfemur 179.748 189.895 158.506
ltibia 14.502
lfoot 20.2019 -6.74271
ltoes -13.5253
545
root -0.405385 1.59305 10.5326 -2436.88 -3.08827 193.894
lowerback 6.65655 -1.52949 -5.0222
upperback 4.26796 -2.51631 -3.38614
thorax 0.739856 -1.41508 -0.532461
lowerneck -19.2043 -4.97388 -0.180774
upperneck 13.3687 -7.79385 4.82646
head 7.46364 -3.40252 0.667047
rclavicle 3.18055e-015 7.95139e-015
rhumerus -433.11 51.3528 252.439
rradius 112.13
rwrist -23.0262
rhand -11.7865 10.2106
rfingers 7.12502
rthumb 14.2628 -19.2797
lclavicle 3.18055e-015 7.95139e-015
lhumerus -76.1626 -65.8882 116.915
lradius 111.396
lwrist 37.795
lhand -2.80836 -13.4901
lfingers 7.12502
lthumb 22.8979 735.17
rfemur -212.338 -145.444 164.29
rtibia 106.742
rfoot 43.7833 14.4065
rtoes 10.6533
lfemur 180.073 189.441 158.565
ltibia 14.097
lfoot 20.2727 -7.40955
ltoes -13.9695
546
root -0.40565 1.59346 10.5315 -2436.86 -3.00219 193.841
lowerback 6.60714 -1.53169 -4.93061
upperback 4.27621 -2.50924 -3.36392
thorax 0.772302 -1.41028 -0.562737
lowerneck -19.1564 -4.94256 -0.163033
upperneck 13.3013 -7.74324 4.79626
head 7.42991 -3.38163 0.662843
rclavicle -5.40694e-014 -2.82274e-014
rhumerus -433.369 51.4691 251.971
rradius 112.12
rwrist -23.3959
rhand -11.6595 10.139
rfingers 7.12502
rthumb 14.3851 -19.3425
lclavicle -5.40694e-014 -2.82274e-014
lhumerus -76.724 -65.996 117.559
lradius 111.31
lwrist 38.1444
lhand -2.83378 -13.5621
lfingers 7.12502
lthumb 22.8735 735.101
rfemur -212.444 -145.613 164.53
rtibia 106.761
rfoot 43.7306 14.3747
rtoes 10.6514
lfemur 180.407 189.005 158.62
ltibia 13.712
lfoot 20.3847 -7.99409
ltoes -14.1588
547
root -0.40559 1.59337 10.5312 -2436.85 -2.91107 193.805
lowerback 6.55886 -1.52839 -4.84224
upperback 4.29686 -2.49531 -3.333
thorax 0.817349 -1.40288 -0.582944
lowerneck -19.1388 -4.93007 -0.187614
upperneck 13.2284 -7.71639 4.81163
head 7.4038 -3.37002 0.676434
rclavicle 3.02153e-014 1.98785e-016
rhumerus -433.553 51.5653 251.576
rradius 112.082
rwrist -23.7288
rhand -11.5538 10.1001
rfingers 7.12502
rthumb 14.487 -19.3741
lclavicle 3.02153e-014 1.98785e-016
lhumerus -77.1551 -66.1309 118.121
lradius 111.238
lwrist 38.4909
lhand -2.88213 -13.4634
lfingers 7.12502
lthumb 22.8271 735.206
rfemur -212.546 -145.774 164.789
rtibia 106.775
rfoot 43.6692 14.3863
rtoes 10.6721
lfemur 180.731 188.534 158.687
ltibia 13.3455
lfoot 20.5821 -8.63255
ltoes -14.4417
548
root -0.405084 1.59388 10.5306 -2436.85 -2.82186 193.769
lowerback 6.51558 -1.52687 -4.74816
upperback 4.32856 -2.48453 -3.31953
thorax 0.870137 -1.39749 -0.62427
lowerneck -19.1308 -4.90131 -0.141811
upperneck 13.1719 -7.68018 4.78565
head 7.38002 -3.35376 0.666227
rclavicle -7.95139e-015 6.24184e-014
rhumerus -433.727 51.652 251.177
rradius 112.059
rwrist -24.0469
rhand -11.451 10.0082
rfingers 7.12502
rthumb 14.586 -19.4589
lclavicle -7.95139e-015 6.24184e-014
lhumerus -77.556 -66.2848 118.601
lradius 111.223
lwrist 38.868
lhand -2.9689 -13.2634
lfingers 7.12502
lthumb 22.7438 735.416
rfemur -212.613 -145.946 165.03
rtibia 106.786
rfoot 43.6006 14.3841
rtoes 10.6758
lfemur 181.082 188.095 158.756
ltibia 12.9813
lfoot 20.8204 -9.14094
ltoes -14.4363
549
root -0.404554 1.59391 10.5295 -2436.83 -2.74974 193.706
lowerback 6.47946 -1.52432 -4.67634
upperback 4.32617 -2.47394 -3.29988
thorax 0.884984 -1.39071 -0.645638
lowerneck -19.0613 -4.87697 -0.153221
upperneck 13.0995 -7.63612 4.78119
head 7.34351 -3.33581 0.674597
rclavicle -3.49861e-014 1.18277e-014
rhumerus -433.974 51.7629 250.729
rradius 112.025
rwrist -24.3908
rhand -11.352 9.96527
rfingers 7.12502
rthumb 14.6814 -19.4949
lclavicle -3.49861e-014 1.18277e-014
lhumerus -77.9775 -66.3683 119.104
lradius 111.197
lwrist 39.1526
lhand -3.07713 -13.0143
lfingers 7.12502
lthumb 22.6399 735.678
rfemur -212.733 -146.151 165.281
rtibia 106.8
rfoot 43.5574 14.2744
rtoes 10.8724
lfemur 181.423 187.665 158.807
ltibia 12.6233
lfoot 21.0754 -9.58462
ltoes -14.4208
